<svg width="32" height="32" viewBox="0 0 32 32" fill="none" xmlns="http://www.w3.org/2000/svg">
<path d="M18 14C18 12.8954 18.8954 12 20 12H30V16H20C18.8954 16 18 15.1046 18 14Z" fill="#252B2A"/>
<path d="M2 18H10C11.1046 18 12 18.8954 12 20C12 21.1046 11.1046 22 10 22H2V18Z" fill="#252B2A"/>
<path d="M7 0C7.55228 0 8 0.447715 8 1V2H24V1C24 0.447715 24.4477 0 25 0C25.5523 0 26 0.447715 26 1V2H28C30.2091 2 32 3.79086 32 6V28C32 30.2091 30.2091 32 28 32H4C1.79086 32 0 30.2091 0 28V6C0 3.79086 1.79086 2 4 2H6V1C6 0.447715 6.44772 0 7 0ZM2 8V28C2 29.1046 2.89543 30 4 30H28C29.1046 30 30 29.1046 30 28V8H2Z" fill="#252B2A"/>
</svg>
