<svg width="54" height="54" viewBox="0 0 54 54" fill="none" xmlns="http://www.w3.org/2000/svg">
<path d="M23.5714 22.8177V3.4647C23.5714 2.5458 23.9327 1.66454 24.5756 1.01479C25.9146 -0.338262 28.0854 -0.338262 29.4244 1.01479C30.0673 1.66454 30.4286 2.5458 30.4286 3.4647V5.49427H47.5714C48.6506 5.49427 49.6668 6.00771 50.3143 6.88014L53.6571 11.3842C54.1143 12.0002 54.1143 12.8471 53.6571 13.4631L50.3143 17.9672C49.6668 18.8396 48.6506 19.353 47.5714 19.353H30.4286V54H23.5714V36.6765H6.42857C5.3494 36.6765 4.33322 36.1631 3.68571 35.2906L0.342859 30.7865C-0.114286 30.1706 -0.114286 29.3237 0.342859 28.7077L3.68571 24.2036C4.33322 23.3312 5.3494 22.8177 6.42857 22.8177H23.5714ZM27 33.2118V26.2824H6.42857L3.85714 29.7471L6.42857 33.2118H27ZM27 15.8884H47.5714L50.1429 12.4237L47.5714 8.95896H27V15.8884Z" fill="url(#paint0_linear_7_56)"/>
<defs>
<linearGradient id="paint0_linear_7_56" x1="1.05" y1="54" x2="54.5059" y2="53.4945" gradientUnits="userSpaceOnUse">
<stop stop-color="#17D1BD"/>
<stop offset="1" stop-color="#B5D3E4"/>
</linearGradient>
</defs>
</svg>
