<svg width="54" height="54" viewBox="0 0 54 54" fill="none" xmlns="http://www.w3.org/2000/svg">
<path d="M28.6875 16.991V20.7051L31.904 18.8481L33.5915 21.7709L30.3749 23.628L33.5915 25.485L31.904 28.4079L28.6875 26.5508V30.2649H25.3125V26.5508L22.0959 28.4079L20.4084 25.485L23.6249 23.628L20.4084 21.7709L22.0959 18.8481L25.3125 20.7052V16.991H28.6875Z" fill="url(#paint0_linear_7_57)"/>
<path d="M44.7188 30.375C44.2528 30.375 43.875 30.7528 43.875 31.2188V32.9062C43.875 33.3722 44.2528 33.75 44.7188 33.75H46.4062C46.8722 33.75 47.25 33.3722 47.25 32.9062V31.2188C47.25 30.7528 46.8722 30.375 46.4062 30.375H44.7188Z" fill="url(#paint1_linear_7_57)"/>
<path d="M43.875 37.9688C43.875 37.5028 44.2528 37.125 44.7188 37.125H46.4062C46.8722 37.125 47.25 37.5028 47.25 37.9688V39.6562C47.25 40.1222 46.8722 40.5 46.4062 40.5H44.7188C44.2528 40.5 43.875 40.1222 43.875 39.6562V37.9688Z" fill="url(#paint2_linear_7_57)"/>
<path d="M44.7188 43.875C44.2528 43.875 43.875 44.2528 43.875 44.7188V46.4062C43.875 46.8722 44.2528 47.25 44.7188 47.25H46.4062C46.8722 47.25 47.25 46.8722 47.25 46.4062V44.7188C47.25 44.2528 46.8722 43.875 46.4062 43.875H44.7188Z" fill="url(#paint3_linear_7_57)"/>
<path d="M7.59375 30.375C7.12776 30.375 6.75 30.7528 6.75 31.2188V32.9062C6.75 33.3722 7.12776 33.75 7.59375 33.75H9.28125C9.74724 33.75 10.125 33.3722 10.125 32.9062V31.2188C10.125 30.7528 9.74724 30.375 9.28125 30.375H7.59375Z" fill="url(#paint4_linear_7_57)"/>
<path d="M7.59375 37.125C7.12776 37.125 6.75 37.5028 6.75 37.9688V39.6562C6.75 40.1222 7.12776 40.5 7.59375 40.5H9.28125C9.74724 40.5 10.125 40.1222 10.125 39.6562V37.9688C10.125 37.5028 9.74724 37.125 9.28125 37.125H7.59375Z" fill="url(#paint5_linear_7_57)"/>
<path d="M6.75 44.7188C6.75 44.2528 7.12776 43.875 7.59375 43.875H9.28125C9.74724 43.875 10.125 44.2528 10.125 44.7188V46.4062C10.125 46.8722 9.74724 47.25 9.28125 47.25H7.59375C7.12776 47.25 6.75 46.8722 6.75 46.4062V44.7188Z" fill="url(#paint6_linear_7_57)"/>
<path d="M16.875 3.375C16.875 1.51104 18.386 0 20.25 0H33.75C35.614 0 37.125 1.51104 37.125 3.375V6.75C38.989 6.75 40.5 8.26104 40.5 10.125V23.625H50.625C52.489 23.625 54 25.136 54 27V50.625C54 52.489 52.489 54 50.625 54H3.375C1.51104 54 0 52.489 0 50.625V27C0 25.136 1.51104 23.625 3.375 23.625H13.5V10.125C13.5 8.26104 15.011 6.75 16.875 6.75V3.375ZM23.625 50.625H30.375V40.5H23.625V50.625ZM33.75 50.625H37.125V10.125L16.875 10.125V50.625H20.25V40.5C20.25 38.636 21.761 37.125 23.625 37.125H30.375C32.239 37.125 33.75 38.636 33.75 40.5V50.625ZM33.75 3.375H20.25V6.75H33.75V3.375ZM40.5 27V50.625H50.625V27H40.5ZM13.5 50.625V27H3.375V50.625H13.5Z" fill="url(#paint7_linear_7_57)"/>
<defs>
<linearGradient id="paint0_linear_7_57" x1="1.05" y1="54" x2="54.5059" y2="53.4945" gradientUnits="userSpaceOnUse">
<stop stop-color="#17D1BD"/>
<stop offset="1" stop-color="#B5D3E4"/>
</linearGradient>
<linearGradient id="paint1_linear_7_57" x1="1.05" y1="54" x2="54.5059" y2="53.4945" gradientUnits="userSpaceOnUse">
<stop stop-color="#17D1BD"/>
<stop offset="1" stop-color="#B5D3E4"/>
</linearGradient>
<linearGradient id="paint2_linear_7_57" x1="1.05" y1="54" x2="54.5059" y2="53.4945" gradientUnits="userSpaceOnUse">
<stop stop-color="#17D1BD"/>
<stop offset="1" stop-color="#B5D3E4"/>
</linearGradient>
<linearGradient id="paint3_linear_7_57" x1="1.05" y1="54" x2="54.5059" y2="53.4945" gradientUnits="userSpaceOnUse">
<stop stop-color="#17D1BD"/>
<stop offset="1" stop-color="#B5D3E4"/>
</linearGradient>
<linearGradient id="paint4_linear_7_57" x1="1.05" y1="54" x2="54.5059" y2="53.4945" gradientUnits="userSpaceOnUse">
<stop stop-color="#17D1BD"/>
<stop offset="1" stop-color="#B5D3E4"/>
</linearGradient>
<linearGradient id="paint5_linear_7_57" x1="1.05" y1="54" x2="54.5059" y2="53.4945" gradientUnits="userSpaceOnUse">
<stop stop-color="#17D1BD"/>
<stop offset="1" stop-color="#B5D3E4"/>
</linearGradient>
<linearGradient id="paint6_linear_7_57" x1="1.05" y1="54" x2="54.5059" y2="53.4945" gradientUnits="userSpaceOnUse">
<stop stop-color="#17D1BD"/>
<stop offset="1" stop-color="#B5D3E4"/>
</linearGradient>
<linearGradient id="paint7_linear_7_57" x1="1.05" y1="54" x2="54.5059" y2="53.4945" gradientUnits="userSpaceOnUse">
<stop stop-color="#17D1BD"/>
<stop offset="1" stop-color="#B5D3E4"/>
</linearGradient>
</defs>
</svg>
