<svg width="54" height="54" viewBox="0 0 54 54" fill="none" xmlns="http://www.w3.org/2000/svg">
<path fill-rule="evenodd" clip-rule="evenodd" d="M37.125 50.625C44.5808 50.625 50.625 44.5808 50.625 37.125C50.625 29.6692 44.5808 23.625 37.125 23.625C29.6692 23.625 23.625 29.6692 23.625 37.125C23.625 44.5808 29.6692 50.625 37.125 50.625ZM54 37.125C54 46.4448 46.4448 54 37.125 54C27.8052 54 20.25 46.4448 20.25 37.125C20.25 27.8052 27.8052 20.25 37.125 20.25C46.4448 20.25 54 27.8052 54 37.125Z" fill="url(#paint0_linear_7_42)"/>
<path d="M31.8516 40.3123C32.0125 42.3237 33.6004 43.8915 36.4544 44.0772V45.5625H37.7205V44.0669C40.671 43.8606 42.3984 42.2824 42.3984 39.9925C42.3984 37.9089 41.0787 36.8362 38.7183 36.2792L37.7205 36.0419V31.9985C38.9865 32.143 39.7912 32.834 39.9844 33.7933H42.2053C42.0444 31.8541 40.3813 30.3379 37.7205 30.1728V28.6875H36.4544V30.2038C33.933 30.4513 32.2164 31.9676 32.2164 34.1131C32.2164 36.011 33.4931 37.2178 35.6175 37.7129L36.4544 37.9192V42.2102C35.1562 42.0142 34.2978 41.3025 34.1047 40.3123H31.8516ZM36.4437 35.7428C35.1991 35.454 34.5232 34.8661 34.5232 33.979C34.5232 32.9888 35.2527 32.2461 36.4544 32.0295V35.7428H36.4437ZM37.9029 38.2596C39.4157 38.6103 40.1131 39.1776 40.1131 40.1782C40.1131 41.3231 39.244 42.107 37.7205 42.2515V38.2184L37.9029 38.2596Z" fill="url(#paint1_linear_7_42)"/>
<path d="M3.375 0C1.51104 0 0 1.51104 0 3.375V30.375C0 32.239 1.51104 33.75 3.375 33.75H17.155C17.3498 32.5885 17.6436 31.4605 18.0273 30.375H10.125C10.125 26.6471 7.10292 23.625 3.375 23.625V10.125C7.10292 10.125 10.125 7.10292 10.125 3.375H43.875C43.875 7.10292 46.8971 10.125 50.625 10.125V22.0313C51.9079 23.1795 53.0435 24.4888 54 25.9274V3.375C54 1.51104 52.489 0 50.625 0H3.375Z" fill="url(#paint2_linear_7_42)"/>
<path d="M33.7443 17.156C33.7481 17.0628 33.75 16.9691 33.75 16.875C33.75 13.1471 30.7279 10.125 27 10.125C23.2721 10.125 20.25 13.1471 20.25 16.875C20.25 19.1852 21.4106 21.2243 23.1805 22.4412C26.0376 19.727 29.6862 17.838 33.7443 17.156Z" fill="url(#paint3_linear_7_42)"/>
<defs>
<linearGradient id="paint0_linear_7_42" x1="1.05" y1="54" x2="54.5059" y2="53.4945" gradientUnits="userSpaceOnUse">
<stop stop-color="#17D1BD"/>
<stop offset="1" stop-color="#B5D3E4"/>
</linearGradient>
<linearGradient id="paint1_linear_7_42" x1="1.05" y1="54" x2="54.5059" y2="53.4945" gradientUnits="userSpaceOnUse">
<stop stop-color="#17D1BD"/>
<stop offset="1" stop-color="#B5D3E4"/>
</linearGradient>
<linearGradient id="paint2_linear_7_42" x1="1.05" y1="54" x2="54.5059" y2="53.4945" gradientUnits="userSpaceOnUse">
<stop stop-color="#17D1BD"/>
<stop offset="1" stop-color="#B5D3E4"/>
</linearGradient>
<linearGradient id="paint3_linear_7_42" x1="1.05" y1="54" x2="54.5059" y2="53.4945" gradientUnits="userSpaceOnUse">
<stop stop-color="#17D1BD"/>
<stop offset="1" stop-color="#B5D3E4"/>
</linearGradient>
</defs>
</svg>
