<svg width="54" height="51" viewBox="0 0 54 51" fill="none" xmlns="http://www.w3.org/2000/svg">
<path d="M23.625 23.8C30.1489 23.8 35.4375 29.1278 35.4375 35.7C35.4375 35.7629 35.437 35.8257 35.4361 35.8884C35.4279 36.4186 35.6658 36.9222 36.0793 37.2503C36.4929 37.5783 37.0347 37.6932 37.5444 37.5609C37.9479 37.4562 38.3724 37.4 38.8125 37.4C41.6084 37.4 43.875 39.6833 43.875 42.5C43.875 45.3167 41.6084 47.6 38.8125 47.6L10.125 47.6C6.39708 47.6 3.375 44.5555 3.375 40.8C3.375 37.0445 6.39708 34 10.125 34C10.2389 34 10.3521 34.0028 10.4645 34.0084C11.2651 34.0482 11.983 33.5151 12.1822 32.7329C13.4904 27.5954 18.1199 23.8 23.625 23.8ZM38.7199 34.0005C37.8807 26.3503 31.4426 20.4 23.625 20.4C16.9979 20.4 11.3656 24.6746 9.29026 30.6342C4.08887 31.0618 0 35.4498 0 40.8C0 46.4333 4.53312 51 10.125 51L38.8125 51C43.4724 51 47.25 47.1944 47.25 42.5C47.25 37.8056 43.4724 34 38.8125 34C38.7816 34 38.7507 34.0002 38.7199 34.0005Z" fill="url(#paint0_linear_7_58)"/>
<path d="M35.4375 1.7C35.4375 0.761116 34.6819 0 33.75 0C32.818 0 32.0625 0.761116 32.0625 1.7V5.1C32.0625 6.03888 32.818 6.8 33.75 6.8C34.6819 6.8 35.4375 6.03888 35.4375 5.1V1.7ZM48.0689 8.37914C48.7279 7.71525 48.7279 6.63887 48.0689 5.97498C47.4099 5.31109 46.3414 5.31109 45.6824 5.97498L43.2959 8.37914C42.6369 9.04303 42.6369 10.1194 43.2959 10.7833C43.9549 11.4472 45.0234 11.4472 45.6824 10.7833L48.0689 8.37914ZM21.8176 5.97498C21.1586 5.31109 20.0901 5.31109 19.4311 5.97498C18.7721 6.63887 18.7721 7.71525 19.4311 8.37914L21.8176 10.7833C22.4766 11.4472 23.545 11.4472 24.2041 10.7833C24.8631 10.1194 24.8631 9.04304 24.2041 8.37914L21.8176 5.97498ZM27.669 17.4449C28.7605 15.1695 31.0733 13.6 33.75 13.6C37.4779 13.6 40.5 16.6444 40.5 20.4C40.5 22.1348 39.8551 23.718 38.7936 24.9193C39.4639 25.8749 40.0475 26.8967 40.5329 27.973C42.5852 26.1063 43.875 23.4049 43.875 20.4C43.875 14.7667 39.3419 10.2 33.75 10.2C29.3382 10.2 25.5855 13.0425 24.1981 17.0088C25.3865 17.045 26.5469 17.1938 27.669 17.4449ZM42.8034 31.2963C44.8284 32.0285 46.5974 33.302 47.9383 34.9436C47.9834 34.9067 48.027 34.8672 48.0689 34.8249C48.7279 34.161 48.7279 33.0847 48.0689 32.4208L45.6824 30.0166C45.0234 29.3527 43.9549 29.3527 43.2959 30.0166C42.9468 30.3683 42.7827 30.8358 42.8034 31.2963ZM48.9375 18.7C48.0055 18.7 47.25 19.4611 47.25 20.4C47.25 21.3388 48.0055 22.1 48.9375 22.1H52.3125C53.2445 22.1 54 21.3388 54 20.4C54 19.4611 53.2445 18.7 52.3125 18.7H48.9375Z" fill="url(#paint1_linear_7_58)"/>
<defs>
<linearGradient id="paint0_linear_7_58" x1="1.05" y1="51" x2="54.5053" y2="50.4648" gradientUnits="userSpaceOnUse">
<stop stop-color="#17D1BD"/>
<stop offset="1" stop-color="#B5D3E4"/>
</linearGradient>
<linearGradient id="paint1_linear_7_58" x1="1.05" y1="51" x2="54.5053" y2="50.4648" gradientUnits="userSpaceOnUse">
<stop stop-color="#17D1BD"/>
<stop offset="1" stop-color="#B5D3E4"/>
</linearGradient>
</defs>
</svg>
