<svg width="32" height="32" viewBox="0 0 32 32" fill="none" xmlns="http://www.w3.org/2000/svg">
<path d="M16 7C16 6.44772 15.5523 6 15 6C14.4477 6 14 6.44772 14 7V18C14 18.3589 14.1923 18.6902 14.5039 18.8682L21.5039 22.8682C21.9834 23.1423 22.5942 22.9757 22.8682 22.4961C23.1423 22.0166 22.9757 21.4058 22.4961 21.1318L16 17.4197V7Z" fill="#252B2A"/>
<path d="M16 32C24.8366 32 32 24.8366 32 16C32 7.16344 24.8366 0 16 0C7.16344 0 0 7.16344 0 16C0 24.8366 7.16344 32 16 32ZM30 16C30 23.732 23.732 30 16 30C8.26801 30 2 23.732 2 16C2 8.26801 8.26801 2 16 2C23.732 2 30 8.26801 30 16Z" fill="#252B2A"/>
</svg>
